# xmcd
#
# Track frame offsets: 
#        150
#        14131
#        32863
#        55529
#        77957
#        101049
#        119090
#        134274
#        157694
#        177266
#        196022
#        212754
#
# Disc length: 3190 seconds
#
# Revision: 0
# Processed by: cddbd v1.5.2PL0 Copyright (c) Steve Scherf et al.
# Submitted via: ExactAudioCopyFreeDBPlugin 1.0
#
DISCID=a10c740c
DTITLE=Hot Buttered Rum String Band - Hot Buttered Rum
DYEAR=2013
DGENRE=Country
TTITLE0=Working Man
TTITLE1=Let the Love Come Through Me
TTITLE2=Blackberry Pie
TTITLE3=Another City
TTITLE4=The Love You Gave Away
TTITLE5=What Old Woman
TTITLE6=Genie's Loose
TTITLE7=The Crest
TTITLE8=Mountain Song
TTITLE9=Diamonds In the Wind
TTITLE10=Every Side of the Corn
TTITLE11=Doctor's Daughter
EXTD=
EXTT0=
EXTT1=
EXTT2=
EXTT3=
EXTT4=
EXTT5=
EXTT6=
EXTT7=
EXTT8=
EXTT9=
EXTT10=
EXTT11=
PLAYORDER=
